999
"DXF R12 Output" (www.mydxf.blogspot.com)
 0 
SECTION
 2 
HEADER
 9 
$ACADVER
 1 
AC1009
 9 
$EXTMIN
 10 
 0 
 20 
 0 
 9 
$EXTMAX
 10 
 8.5 
 20 
 11 
 0 
ENDSEC
 0 
SECTION
 2 
ENTITIES
0
LINE
8
Shape2DView
10
2.939524
20
4.000373
11
1.999990
21
4.000373
0
LINE
8
Shape2DView
10
1.999990
20
4.000373
11
1.999990
21
6.900467
0
LINE
8
Shape2DView
10
6.000220
20
7.061069
11
2.939524
21
4.000373
0
LINE
8
Shape2DView
10
1.999990
20
6.900467
11
0.000007
21
6.900467
0
LINE
8
Shape2DView
10
6.000220
20
12.939574
11
6.000220
21
7.061069
0
LINE
8
Shape2DView
10
0.000007
20
6.900467
11
0.000007
21
0.000407
0
LINE
8
Shape2DView
10
2.939524
20
16.000270
11
6.000220
21
12.939574
0
LINE
8
Shape2DView
10
0.000007
20
0.000407
11
6.900067
21
0.000407
0
LINE
8
Shape2DView
10
1.999990
20
16.000270
11
2.939524
21
16.000270
0
LINE
8
Shape2DView
10
6.900067
20
0.000407
11
6.900067
21
2.000390
0
LINE
8
Shape2DView
10
1.999990
20
13.100441
11
1.999990
21
16.000270
0
LINE
8
Shape2DView
10
6.900067
20
2.000390
11
4.000237
21
2.000390
0
LINE
8
Shape2DView
10
0.000007
20
13.100441
11
1.999990
21
13.100441
0
LINE
8
Shape2DView
10
4.000237
20
2.000390
11
4.000237
21
2.939660
0
LINE
8
Shape2DView
10
0.000007
20
20.000501
11
0.000007
21
13.100441
0
LINE
8
Shape2DView
10
6.900067
20
20.000501
11
0.000007
21
20.000501
0
LINE
8
Shape2DView
10
6.900067
20
18.000253
11
6.900067
21
20.000501
0
LINE
8
Shape2DView
10
4.000237
20
18.000253
11
6.900067
21
18.000253
0
LINE
8
Shape2DView
10
4.000237
20
17.060984
11
4.000237
21
18.000253
0
LINE
8
Shape2DView
10
7.060669
20
14.000287
11
4.000237
21
17.060984
0
LINE
8
Shape2DView
10
12.939439
20
14.000287
11
7.060669
21
14.000287
0
LINE
8
Shape2DView
10
16.000135
20
17.060984
11
12.939439
21
14.000287
0
LINE
8
Shape2DView
10
16.000135
20
18.000253
11
16.000135
21
17.060984
0
LINE
8
Shape2DView
10
13.100040
20
18.000253
11
16.000135
21
18.000253
0
LINE
8
Shape2DView
10
13.100040
20
20.000501
11
13.100040
21
18.000253
0
LINE
8
Shape2DView
10
20.000100
20
20.000501
11
13.100040
21
20.000501
0
LINE
8
Shape2DView
10
20.000100
20
13.100441
11
20.000100
21
20.000501
0
LINE
8
Shape2DView
10
18.000118
20
13.100441
11
20.000100
21
13.100441
0
LINE
8
Shape2DView
10
18.000118
20
16.000270
11
18.000118
21
13.100441
0
LINE
8
Shape2DView
10
17.060848
20
16.000270
11
18.000118
21
16.000270
0
LINE
8
Shape2DView
10
14.000152
20
12.939839
11
17.060848
21
16.000270
0
LINE
8
Shape2DView
10
14.000152
20
7.061069
11
14.000152
21
12.939839
0
LINE
8
Shape2DView
10
17.060848
20
4.000373
11
14.000152
21
7.061069
0
LINE
8
Shape2DView
10
18.000118
20
4.000373
11
17.060848
21
4.000373
0
LINE
8
Shape2DView
10
18.000118
20
6.900467
11
18.000118
21
4.000373
0
LINE
8
Shape2DView
10
20.000100
20
6.900467
11
18.000118
21
6.900467
0
LINE
8
Shape2DView
10
20.000100
20
0.000407
11
20.000100
21
6.900467
0
LINE
8
Shape2DView
10
13.100040
20
0.000407
11
20.000100
21
0.000407
0
LINE
8
Shape2DView
10
13.100040
20
2.000390
11
13.100040
21
0.000407
0
LINE
8
Shape2DView
10
16.000135
20
2.000390
11
13.100040
21
2.000390
0
LINE
8
Shape2DView
10
16.000135
20
2.939660
11
16.000135
21
2.000390
0
LINE
8
Shape2DView
10
12.939439
20
6.000356
11
16.000135
21
2.939660
0
LINE
8
Shape2DView
10
12.939439
20
6.000356
11
7.060669
21
6.000356
0
LINE
8
Shape2DView
10
7.060669
20
6.000356
11
4.000237
21
2.939660
 0 
ENDSEC
 0 
EOF